PathFileType	4	(X/Y/Z)	Kaydara	
DataRate	CameraRate	NumFrames	NumMarkers	Units	OrigDataRate	OrigDataStartFrame	OrigNumFrames	
120.00	120.00	7	30	mm	120.00	356	2847	
Frame#	Time	reference			Pelvis			Left_hip			Left_knee			Left_ankle			Left_foot			Left_foot_End			Right_hip			Right_knee			Right_ankle			Right_foot			Right_foot_End			Spine1			Spine2			Spine3			Neck			Head			Head_End			Left_collar			Left_shoulder			Left_elbow			Left_wrist			Left_palm			Left_palm_End			Right_collar			Right_shoulder			Right_elbow			Right_wrist			Right_palm			Right_palm_End			
		X1	Y1	Z1	X2	Y2	Z2	X3	Y3	Z3	X4	Y4	Z4	X5	Y5	Z5	X6	Y6	Z6	X7	Y7	Z7	X8	Y8	Z8	X9	Y9	Z9	X10	Y10	Z10	X11	Y11	Z11	X12	Y12	Z12	X13	Y13	Z13	X14	Y14	Z14	X15	Y15	Z15	X16	Y16	Z16	X17	Y17	Z17	X18	Y18	Z18	X19	Y19	Z19	X20	Y20	Z20	X21	Y21	Z21	X22	Y22	Z22	X23	Y23	Z23	X24	Y24	Z24	X25	Y25	Z25	X26	Y26	Z26	X27	Y27	Z27	X28	Y28	Z28	X29	Y29	Z29	X30	Y30	Z30	

356	2.958	0.00000	0.00000	0.00000	670.24002	983.82004	-600.61001	598.83473	911.99337	-584.60960	570.05749	579.52446	-784.47756	604.01510	183.18449	-624.46965	569.27359	132.43015	-752.65361	569.27359	132.43015	-752.65361	714.51458	889.63836	-566.21683	763.99863	518.71798	-661.50837	815.01324	107.87822	-580.24046	837.96207	71.21485	-722.31137	837.96207	71.21485	-722.31137	683.21607	1106.53312	-617.09617	696.35972	1242.38487	-637.92066	705.70457	1294.89266	-655.48527	739.11934	1494.48322	-720.27367	739.89382	1589.03102	-760.44071	739.89382	1589.03102	-760.44071	644.41623	1409.50740	-695.50516	518.60886	1445.69181	-714.97355	437.76457	1203.18800	-739.91271	435.97846	996.00290	-906.90985	448.51002	916.83169	-944.94179	448.51002	916.83169	-944.94179	794.93141	1404.94935	-659.89045	911.49067	1438.11576	-639.85262	998.80063	1194.43050	-682.80289	903.62580	1119.43615	-923.25912	870.65633	1058.60827	-980.41859	870.65633	1058.60827	-980.41859 
357	2.967	0.00000	0.00000	0.00000	672.33002	984.39003	-605.60001	600.87409	912.61244	-589.60546	575.66465	584.38649	-796.83268	604.29936	183.75246	-646.78786	568.92031	135.20647	-775.65102	568.92031	135.20647	-775.65102	716.58443	890.01979	-571.70132	764.25548	518.51228	-665.62000	815.89359	108.21918	-582.01769	838.59252	70.92673	-723.96496	838.59252	70.92673	-723.96496	685.43161	1107.14214	-621.69161	698.71077	1243.03666	-642.14786	708.07833	1295.56327	-659.64397	741.62534	1495.14821	-724.38132	742.41755	1589.73623	-764.45320	742.41755	1589.73623	-764.45320	646.85383	1410.35304	-699.25782	521.01439	1446.77910	-718.05679	439.45022	1204.52099	-743.03988	436.83638	997.79042	-910.58850	448.87092	918.82681	-949.20803	448.87092	918.82681	-949.20803	797.52367	1405.42985	-664.35275	914.23739	1438.36201	-644.83436	1002.09153	1195.16211	-689.39580	904.88840	1121.14954	-929.34431	871.51668	1060.54606	-986.50871	871.51668	1060.54606	-986.50871 
358	2.975	0.00000	0.00000	0.00000	674.45000	984.88998	-610.75001	602.95513	913.13577	-594.82469	581.28995	589.41975	-809.41607	604.47625	184.88005	-669.23385	568.29376	137.60636	-798.34670	568.29376	137.60636	-798.34670	718.69050	890.33520	-577.35112	765.38138	518.54086	-670.62498	817.61017	108.82640	-584.58728	840.07636	70.81366	-726.38043	840.07636	70.81366	-726.38043	687.65198	1107.68833	-626.40075	701.03957	1243.63415	-646.44123	710.42288	1296.18646	-663.85149	744.07642	1495.78725	-728.48462	744.87523	1590.42584	-768.43681	744.87523	1590.42584	-768.43681	649.24971	1411.15130	-703.03463	523.38471	1447.81491	-721.18967	441.59947	1205.63095	-746.16897	439.20222	998.77515	-913.56619	450.74449	920.13752	-952.99271	450.74449	920.13752	-952.99271	800.06829	1405.87796	-668.83008	916.93274	1438.57713	-649.82874	1005.27431	1195.86852	-696.07326	906.05878	1122.91210	-935.52103	872.34191	1062.53330	-992.72064	872.34191	1062.53330	-992.72064 
359	2.983	0.00000	0.00000	0.00000	676.50002	985.21004	-616.05000	604.96742	913.47567	-600.20489	586.58804	594.15383	-821.57938	604.78858	186.61020	-689.60228	567.94365	140.12941	-818.81564	567.94365	140.12941	-818.81564	720.72467	890.47583	-583.14214	766.35985	518.38362	-675.74828	819.00322	109.43353	-586.39076	841.22875	70.59075	-727.99677	841.22875	70.59075	-727.99677	689.79928	1108.05327	-631.25992	703.29276	1244.04849	-650.88999	712.69301	1296.62453	-668.21929	746.45650	1496.22973	-732.78139	747.26690	1590.90952	-772.63561	747.26690	1590.90952	-772.63561	651.57565	1411.75045	-707.01466	525.70347	1448.48147	-724.98269	444.03628	1206.27779	-750.15626	440.39392	1000.16746	-918.44816	451.80752	921.66711	-958.18447	451.80752	921.66711	-958.18447	802.52948	1406.14711	-673.46548	919.55751	1438.56359	-654.99396	1008.24667	1196.36689	-703.21479	907.03766	1124.43089	-942.13642	873.01897	1064.24594	-999.36161	873.01897	1064.24594	-999.36161 
360	2.992	0.00000	0.00000	0.00000	678.51997	985.28999	-621.53000	606.95015	913.58348	-605.72698	591.33188	598.27865	-832.99299	605.43453	188.48745	-707.64023	568.73470	142.85267	-837.19599	568.73470	142.85267	-837.19599	722.73240	890.38021	-589.11532	767.51373	518.07992	-681.30102	820.52178	109.96449	-588.41285	842.50270	70.22839	-729.80902	842.50270	70.22839	-729.80902	691.92118	1108.17299	-636.32357	705.52085	1244.21520	-655.55064	714.92743	1296.81965	-672.79005	748.74241	1496.46670	-737.19560	749.52788	1591.21316	-776.89158	749.52788	1591.21316	-776.89158	653.83293	1412.12751	-711.07775	527.94639	1448.77999	-729.10546	446.27217	1206.62689	-754.73860	440.96695	1001.65726	-924.37411	452.47523	923.03400	-963.83919	452.47523	923.03400	-963.83919	804.94725	1406.17759	-678.32009	922.11537	1438.37988	-660.36930	1011.19717	1196.75562	-710.69233	907.95971	1125.66938	-948.99964	873.64014	1065.63362	-1006.20188	873.64014	1065.63362	-1006.20188 
361	3.000	0.00000	0.00000	0.00000	680.57999	985.74997	-626.78001	608.98985	914.04085	-611.08117	597.35695	601.57813	-842.47397	608.08925	189.89644	-723.12559	572.72413	145.32163	-853.41948	572.72413	145.32163	-853.41948	724.79468	890.67297	-594.86228	767.51718	517.75755	-685.52623	820.56254	110.56230	-588.70427	842.47609	70.59903	-730.04687	842.47609	70.59903	-730.04687	694.04810	1108.68022	-641.11298	707.72386	1244.77422	-659.91494	717.14073	1297.40545	-677.06678	751.00236	1497.07115	-741.38995	751.79261	1591.84927	-781.01018	751.79261	1591.84927	-781.01018	656.07159	1412.78415	-715.18115	530.15464	1449.60011	-732.65484	448.41051	1207.52222	-758.77088	438.74114	1007.29020	-933.78673	449.64441	929.87480	-975.73341	449.64441	929.87480	-975.73341	807.23238	1406.70083	-682.66325	924.53309	1438.67064	-665.16860	1013.97370	1197.63428	-717.62918	908.68705	1127.32993	-955.27096	874.04944	1067.43355	-1012.42760	874.04944	1067.43355	-1012.42760 
362	3.008	0.00000	0.00000	0.00000	682.04002	986.35002	-631.58001	610.44540	914.59006	-616.13601	604.26045	603.44571	-849.50662	611.85542	190.18503	-735.49366	577.86518	146.35408	-866.40437	577.86518	146.35408	-866.40437	726.26077	891.11284	-600.15200	767.05477	517.51064	-688.85558	820.14889	111.30236	-587.99866	842.10140	71.41011	-729.35527	842.10140	71.41011	-729.35527	695.52960	1109.34146	-645.35712	709.24199	1245.49906	-663.66539	718.66909	1298.15887	-680.72364	752.56907	1497.81781	-745.04760	753.37784	1592.59920	-784.65962	753.37784	1592.59920	-784.65962	657.62252	1413.53813	-718.87246	531.69175	1450.60145	-735.71217	449.89109	1208.60321	-762.38356	437.56273	1011.54507	-940.80162	448.03550	935.01647	-984.45071	448.03550	935.01647	-984.45071	808.76924	1407.44877	-686.29037	926.21116	1439.15549	-669.27079	1016.11716	1198.75028	-723.79152	908.82827	1129.19335	-960.75676	873.89205	1069.42831	-1017.86912	873.89205	1069.42831	-1017.86912 
